<?xml version="1.0" encoding="utf-8"?>
<!-- Generator: Adobe Illustrator 24.1.0, SVG Export Plug-In . SVG Version: 6.00 Build 0)  -->
<svg version="1.1" id="Layer_1" xmlns="http://www.w3.org/2000/svg" xmlns:xlink="http://www.w3.org/1999/xlink" x="0px" y="0px"
	 viewBox="0 0 357.4 68.3" style="enable-background:new 0 0 357.4 68.3;" xml:space="preserve">
<style type="text/css">
	.st0{fill:#2B388F;}
	.st1{fill:#D02027;}
	.st2{fill:#E25026;}
</style>
<g>
	<path class="st0" d="M17.7,23.6H1.4v-9.5h43.8v9.5H28.9v44.7H17.7V23.6z"/>
	<path class="st0" d="M66.8,32c2.5-3.9,7.3-4.6,11.3-4.6c11.9,0,14.3,5.7,14.3,18.4v22.5H81.9V47.7c0-9.1,0-11.6-6.7-11.6
		c-7,0-8.4,2.8-8.4,10.4v21.9H56.3V14.1h10.5V32z"/>
	<path class="st0" d="M141.6,56.9c-1.3,9.2-7.3,12.4-18.1,12.4c-12.3,0-19.1-4.2-19.1-21.3c0-11.4,3-20.5,19.5-20.5
		c14,0,18.1,6.5,18.1,23.8h-26.8c0.4,7.6,2.3,9.4,8.2,9.4c4,0,6.4-0.8,7.5-3.8C130.9,56.9,141.6,56.9,141.6,56.9z M131.5,44.6
		c-0.5-7.3-3.3-8.5-8.2-8.5c-6.1,0-7.7,2.1-8.1,8.5H131.5z"/>
	<path class="st0" d="M181.2,68.3c-6.1-18.1-11-36.1-14.5-54.2h11.8c2,12.9,4.9,25.9,8.6,38.8l8.3-38.8h12.3l8.6,39
		c3.9-13,6.8-26,8.7-39h11.3c-3.5,18.1-8.4,36.1-14.5,54.2H210l-8.5-39.4L193,68.3C193,68.3,181.2,68.3,181.2,68.3z"/>
	<path class="st0" d="M252.6,13c4.9,0,6,1.7,6,5.7s-1.1,5.6-6,5.6s-6-1.7-6-5.6S247.7,13,252.6,13z M247.4,28.4h10.5v39.9h-10.5
		V28.4z"/>
	<path class="st0" d="M307.7,41.9h-10.4c-0.8-3.9-2.1-5.8-7.5-5.8c-5.7,0-8.1,2-8.1,12.3s2.4,12.3,7.6,12.3c5.7,0,7.7-2.5,8-6.5
		h10.5c-0.8,8.9-4.8,15.1-18,15.1c-15.8,0-18.9-8.9-18.9-20.5c0-12.7,3.8-21.3,19.4-21.3C301.8,27.4,306.8,32.1,307.7,41.9
		L307.7,41.9z"/>
	<path class="st0" d="M320.2,14.1h10.5v29.1l12.9-14.7h12.9l-13.9,15.1L357,68.3h-12L335.3,51l-4.5,4.7v12.6h-10.5L320.2,14.1
		L320.2,14.1z"/>
</g>
<path class="st1" d="M253.8,26.8c0,0,5.2-1.2,6.2-6.6c0,0,0.9-2.9-1.5-8.7c0,0-3.5-11.5-10.8-11.5c0,0,3.2,2.9,2,6.9
	c0,0-4.3,6.3-4.6,9.6c0,0-0.9,5.5,4,9.4C249.1,25.8,251.2,27,253.8,26.8z"/>
<path class="st2" d="M253.8,25c-1.6,0.4-2.7-4.9-2.3-6.7c0,0,0.3-2.3,2-4.4c0,0,1.7-2.8,1.6-4.6c0,0,2.4,1.7,3.3,6.4
	c0,0,0.6,3.6-2,8.1C256.3,23.9,255.4,24.7,253.8,25z"/>
</svg>
